<svg width="35" height="35" viewBox="0 0 35 35" fill="none" xmlns="http://www.w3.org/2000/svg">
<circle cx="17.5" cy="17.5" r="17.5" fill="#3197D6"/>
<path d="M24.7273 16.3636C24.7273 22.0909 17.3636 27 17.3636 27C17.3636 27 10 22.0909 10 16.3636C10 14.4107 10.7758 12.5377 12.1568 11.1568C13.5377 9.77581 15.4107 9 17.3636 9C19.3166 9 21.1896 9.77581 22.5705 11.1568C23.9515 12.5377 24.7273 14.4107 24.7273 16.3636Z" fill="white"/>
<path d="M17.3627 18.8183C18.7184 18.8183 19.8173 17.7193 19.8173 16.3637C19.8173 15.0081 18.7184 13.9092 17.3627 13.9092C16.0071 13.9092 14.9082 15.0081 14.9082 16.3637C14.9082 17.7193 16.0071 18.8183 17.3627 18.8183Z" fill="#247CCA"/>
</svg>
