<svg width="30" height="30" viewBox="0 0 30 30" fill="none" xmlns="http://www.w3.org/2000/svg">
<circle cx="15" cy="15" r="14.5" stroke="#3197D6"/>
<path d="M22.2855 19.2658V21.5885C22.2863 21.8041 22.2421 22.0175 22.1555 22.2151C22.069 22.4126 21.942 22.59 21.7828 22.7357C21.6236 22.8815 21.4357 22.9925 21.231 23.0616C21.0264 23.1306 20.8095 23.1563 20.5943 23.1369C18.2072 22.878 15.9143 22.0639 13.8997 20.7601C12.0253 19.5714 10.4362 17.9854 9.24519 16.1148C7.93417 14.0951 7.11829 11.7955 6.86366 9.40245C6.84427 9.18835 6.86977 8.97258 6.93852 8.76885C7.00727 8.56513 7.11777 8.37793 7.26298 8.21916C7.4082 8.0604 7.58495 7.93355 7.78198 7.84669C7.979 7.75984 8.192 7.71488 8.40739 7.71467H10.7346C11.1111 7.71098 11.4761 7.84403 11.7615 8.08903C12.047 8.33403 12.2334 8.67426 12.2861 9.04631C12.3843 9.7896 12.5665 10.5194 12.8291 11.2218C12.9335 11.4989 12.9561 11.8001 12.8942 12.0896C12.8324 12.3792 12.6886 12.6449 12.48 12.8554L11.4949 13.8387C12.5992 15.7769 14.2072 17.3818 16.1493 18.4839L17.1345 17.5007C17.3454 17.2925 17.6117 17.149 17.9018 17.0873C18.1919 17.0256 18.4937 17.0481 18.7713 17.1523C19.4751 17.4144 20.2064 17.5962 20.9512 17.6942C21.328 17.7473 21.6722 17.9367 21.9182 18.2265C22.1642 18.5162 22.2949 18.8862 22.2855 19.2658Z" fill="#3197D6" stroke="#3197D6" stroke-miterlimit="10"/>
<path d="M18.8568 13.7147C18.8568 13.2739 18.5139 12.5515 17.9996 12.0005C17.5294 11.4935 16.9025 11.1433 16.2853 11.1433" stroke="#3197D6" stroke-linecap="round" stroke-linejoin="round"/>
<path d="M21.4282 13.7146C21.4282 10.8714 19.1286 8.57178 16.2853 8.57178" stroke="#3197D6" stroke-linecap="round" stroke-linejoin="round"/>
</svg>
