<svg width="35" height="35" viewBox="0 0 35 35" fill="none" xmlns="http://www.w3.org/2000/svg">
<circle cx="17.5" cy="17.5" r="17" stroke="#3197D6"/>
<path d="M24.7273 16.3636C24.7273 22.0909 17.3636 27 17.3636 27C17.3636 27 10 22.0909 10 16.3636C10 14.4107 10.7758 12.5377 12.1568 11.1568C13.5377 9.77581 15.4107 9 17.3636 9C19.3166 9 21.1896 9.77581 22.5705 11.1568C23.9515 12.5377 24.7273 14.4107 24.7273 16.3636Z" fill="#3197D6"/>
<path d="M17.3636 18.8183C18.7192 18.8183 19.8182 17.7193 19.8182 16.3637C19.8182 15.0081 18.7192 13.9092 17.3636 13.9092C16.008 13.9092 14.9091 15.0081 14.9091 16.3637C14.9091 17.7193 16.008 18.8183 17.3636 18.8183Z" fill="white"/>
</svg>
