<svg width="40" height="40" viewBox="0 0 40 40" fill="none" xmlns="http://www.w3.org/2000/svg">
<circle cx="20" cy="20" r="20" fill="#3197D6"/>
<path d="M28.9994 24.4765V27.1862C29.0005 27.4377 28.9488 27.6867 28.8479 27.9172C28.7469 28.1477 28.5988 28.3546 28.413 28.5247C28.2273 28.6947 28.008 28.8242 27.7693 28.9048C27.5305 28.9854 27.2775 29.0153 27.0265 28.9927C24.2415 28.6907 21.5664 27.7409 19.216 26.2197C17.0293 24.8329 15.1753 22.9827 13.7858 20.8003C12.2563 18.4439 11.3044 15.7611 11.0073 12.9692C10.9847 12.7194 11.0145 12.4676 11.0947 12.23C11.1749 11.9923 11.3038 11.7739 11.4732 11.5887C11.6426 11.4034 11.8489 11.2554 12.0787 11.1541C12.3086 11.0528 12.5571 11.0003 12.8084 11.0001H15.5235C15.9627 10.9958 16.3885 11.151 16.7215 11.4368C17.0545 11.7227 17.2721 12.1196 17.3335 12.5537C17.4481 13.4208 17.6607 14.2723 17.9671 15.0918C18.0888 15.4151 18.1152 15.7664 18.043 16.1042C17.9708 16.442 17.8031 16.752 17.5598 16.9976L16.4104 18.1447C17.6988 20.406 19.5748 22.2784 21.8406 23.5642L22.99 22.4171C23.2361 22.1742 23.5467 22.0069 23.8852 21.9348C24.2236 21.8628 24.5757 21.8891 24.8996 22.0106C25.7207 22.3164 26.5739 22.5285 27.4428 22.6429C27.8824 22.7048 28.2839 22.9258 28.5709 23.2639C28.858 23.6019 29.0105 24.0335 28.9994 24.4765Z" fill="white"/>
<path d="M25 18C25 17.4857 24.6 16.6429 24 16C23.4514 15.4086 22.72 15 22 15" stroke="white" stroke-linecap="round" stroke-linejoin="round"/>
<path d="M28 18C28 14.6829 25.3171 12 22 12" stroke="white" stroke-linecap="round" stroke-linejoin="round"/>
</svg>
