<svg width="175" height="60" viewBox="0 0 175 60" fill="none" xmlns="http://www.w3.org/2000/svg">
<path fill-rule="evenodd" clip-rule="evenodd" d="M28.4523 0.480279C28.4523 0.724591 27.1378 8.66727 25.5317 18.1315C23.9251 27.5956 22.6729 35.8971 22.7486 36.5791C22.884 37.7979 22.949 37.8215 26.5207 37.9532L30.1551 38.0871L30.4045 36.7942C30.5421 36.083 30.9691 33.6237 31.3543 31.3289C31.739 29.0342 32.26 26.0616 32.5111 24.7228L32.9684 22.2889H40.2841C46.8111 22.2889 47.5997 22.3719 47.5997 23.0603C47.5997 23.485 47.0889 26.8261 46.4646 30.4857C45.8404 34.1448 45.4516 37.344 45.6003 37.5948C45.9134 38.1219 53.3875 38.2258 53.3902 37.7033C53.3911 37.5123 54.6049 30.2627 56.0877 21.5935C57.5706 12.9244 58.8223 4.5798 58.869 3.04996L58.9545 0.268418L55.3045 0.133977L51.654 0L51.3873 1.52475C51.2403 2.36384 50.6664 5.65765 50.1115 8.84483L49.1034 14.6397L41.672 14.7667C37.5852 14.8367 34.2411 14.7505 34.2411 14.5748C34.2411 14.3991 34.7518 11.2615 35.3761 7.60194C36.0004 3.94283 36.3891 0.743598 36.2404 0.492796C35.8909 -0.0964266 28.4523 -0.108017 28.4523 0.480279ZM71.3353 5.73785C67.614 8.849 64.558 11.5323 64.5447 11.7005C64.5077 12.1674 68.0544 16.7259 68.4543 16.7259C68.6475 16.7259 70.8468 14.9452 73.3422 12.7691C76.0967 10.3668 77.8792 9.09424 77.8792 9.52955C77.8792 9.92406 76.9833 15.5122 75.8888 21.9468C74.7938 28.3819 73.8423 34.5856 73.7737 35.733L73.649 37.8192L77.3226 37.9536C79.3429 38.0278 80.9962 37.9439 80.9962 37.7668C80.9962 37.5902 82.2123 30.3322 83.6987 21.6385C85.1846 12.9444 86.4372 4.5798 86.4817 3.04996L86.5623 0.268418L82.3321 0.174773L78.1019 0.0806645L71.3353 5.73785ZM107.203 0.647171C102.399 1.78111 99.8974 4.36933 98.6016 9.54856C97.3721 14.464 97.337 14.4079 101.645 14.4079H105.373L105.666 12.5049C106.366 7.94778 108.128 6.77026 113.806 7.06882C117.895 7.28392 118.58 7.9297 118.135 11.1526C117.409 16.4069 116.602 17.0457 109.058 18.3378C101.392 19.6506 98.232 21.238 96.5813 24.6069C95.5718 26.6671 93.6691 36.2666 94.0601 37.3273C94.2939 37.961 96.0078 38.051 107.876 38.051H121.426L121.933 35.02C122.212 33.3534 122.321 31.7888 122.175 31.5431C122.018 31.2793 117.936 31.0971 112.187 31.0971H102.465L102.924 29.2113C103.184 28.1455 103.823 27.0264 104.393 26.6379C104.947 26.2596 108.028 25.4529 111.239 24.8456C114.451 24.2379 118.149 23.2309 119.457 22.6074C123.583 20.6404 125.468 16.7847 125.844 9.54021C126.042 5.70911 125.974 5.23625 125.002 3.75554C123.452 1.39355 120.636 0.436238 114.615 0.225305C111.63 0.120997 108.735 0.285571 107.203 0.647171ZM131.584 0.419085C131.326 0.854859 131.808 4.84127 134.474 24.2726L136.368 38.0774L141.968 37.9485L147.567 37.8192L156.124 19.971C160.83 10.1545 164.688 1.65362 164.696 1.0797C164.71 0.0811282 164.554 0.0366236 161.031 0.0366236H157.351L150.471 14.3861C146.688 22.2783 143.542 28.6837 143.481 28.6202C143.42 28.5571 142.555 22.5689 141.56 15.3138C140.565 8.05858 139.651 1.65362 139.531 1.0797C139.325 0.0987446 139.089 0.0366236 135.562 0.0366236C133.499 0.0366236 131.71 0.208615 131.584 0.419085ZM7.81548 9.65611C7.66631 9.90784 6.63324 15.0685 6.63324 15.5618C6.63324 15.5928 5.31742 15.6378 3.70948 15.6619C2.10111 15.686 0.699341 15.7954 0.594253 15.9048C0.489165 16.0142 0.27899 17.0476 0.127147 18.201C-0.126667 20.1277 -0.0634365 20.3224 0.904173 20.5917C1.48349 20.7535 2.82514 20.8884 3.88537 20.8917C5.74979 20.8982 5.80545 20.9403 5.57079 22.173C5.4372 22.8744 5.19853 24.2304 5.04045 25.1864L4.75279 26.9248H7.20098H9.64962L10.1862 23.963L10.7232 21.0006L13.5592 20.8129C15.1191 20.7095 16.5208 20.4939 16.6745 20.334C16.9955 19.9997 17.8625 16.209 17.6652 16.0031C17.5931 15.928 16.2336 15.7945 14.644 15.7064C13.0547 15.6183 11.7852 15.3425 11.8235 15.0931C11.8618 14.8437 12.0355 13.4404 12.2091 11.9741L12.5244 9.30842H10.273C9.03468 9.30842 7.92903 9.46465 7.81548 9.65611ZM165.223 18.4643C164.998 18.9103 164.672 20.1624 164.5 21.2459L164.187 23.2161H169.066H173.945L174.221 21.4776C174.856 17.4801 175.043 17.653 170.069 17.653C166.296 17.653 165.571 17.7745 165.223 18.4643ZM23.7951 43.2446C23.1565 46.174 21.3277 57.5815 21.3277 58.6344C21.3277 59.6983 21.5067 59.8397 22.8564 59.8397C24.666 59.8397 24.6144 59.9625 25.7851 52.8594C26.2562 50.0014 26.734 47.5662 26.8475 47.4484C26.9606 47.3302 27.9193 50.0695 28.9773 53.5353L30.9014 59.8374L33.9071 59.8383C35.5604 59.8392 36.9128 59.6515 36.9128 59.4211C36.9128 59.1907 37.5095 55.4082 38.2384 51.0153C38.9678 46.6223 39.4567 42.8468 39.3254 42.6257C39.194 42.4045 38.413 42.2233 37.5896 42.2233C35.8993 42.2233 36.0716 41.7769 34.905 49.1771C34.5234 51.5994 34.0963 53.8942 33.9561 54.2766C33.8154 54.6605 32.7752 52.1687 31.6335 48.7135L29.5655 42.4551L26.7963 42.3174C24.2212 42.1894 24.0106 42.2543 23.7951 43.2446ZM45.3888 42.7986C42.7884 43.7819 41.4547 46.5096 40.4083 52.9813C39.7902 56.8036 40.3259 58.5379 42.4058 59.4521C44.2008 60.2412 49.725 60.161 51.4247 59.3209C53.164 58.4614 54.633 55.2515 55.4114 50.6092C56.1434 46.2449 55.89 44.2867 54.4691 43.3174C53.0892 42.3763 47.3695 42.0494 45.3888 42.7986ZM58.9576 42.8028C58.7715 43.3665 56.0601 59.0674 56.0601 59.5819C56.0601 59.7238 56.8483 59.8397 57.8115 59.8397C59.7133 59.8397 59.7734 59.753 60.2971 56.2469L60.5914 54.2766H63.1692C66.3289 54.2766 66.756 54.7319 66.3245 57.6376L65.9976 59.8397H67.899H69.7999L70.1103 57.2538C70.2897 55.7569 70.2319 54.2368 69.9723 53.6438C69.612 52.82 69.726 52.3754 70.556 51.3708C71.7436 49.9332 72.404 46.3529 71.8082 44.5839C71.2369 42.8871 69.136 42.2803 63.7275 42.2492C60.4449 42.2307 59.0952 42.3874 58.9576 42.8028ZM74.0854 42.8028C73.9736 43.1217 73.8298 43.9038 73.7657 44.5412C73.6575 45.6154 73.804 45.7104 75.7641 45.8416C78.2608 46.0085 78.1972 45.6552 76.982 52.6165C75.7218 59.8351 75.7223 59.8397 77.8792 59.8397C78.8589 59.8397 79.6613 59.683 79.6622 59.492C79.6635 59.301 80.1644 56.2344 80.7754 52.6782C81.3868 49.1215 81.8868 46.149 81.8868 46.072C81.8868 45.9951 82.9729 45.932 84.3007 45.932C86.6158 45.932 86.7262 45.8759 87.0054 44.5524C87.1653 43.7939 87.1693 42.9595 87.0143 42.698C86.5806 41.9674 74.3441 42.0666 74.0854 42.8028ZM88.8489 43.0091C88.4161 44.532 86.3397 57.5389 86.3397 58.7285C86.3397 59.7938 86.4853 59.8833 88.0095 59.7516L89.6793 59.6079L90.2925 56.2469L90.9057 52.8858H94.4591C97.3601 52.8858 97.9675 53.0078 97.7675 53.5497C97.6331 53.915 97.3855 55.4796 97.2172 57.0266L96.9117 59.8397H98.7503C99.7615 59.8397 100.589 59.7164 100.589 59.5657C100.589 59.415 101.199 55.6558 101.946 51.2123C102.692 46.7683 103.181 42.9279 103.033 42.6781C102.884 42.4277 102.087 42.2233 101.262 42.2233C99.8065 42.2233 99.7477 42.2961 99.3074 44.6571C99.058 45.996 98.7908 47.5082 98.7147 48.0182C98.5913 48.8401 98.1794 48.9606 95.0847 49.0816L91.5941 49.2179L91.9338 46.7637C92.5292 42.4616 92.5319 42.4708 90.7191 42.3137C89.4576 42.2043 89.0332 42.3619 88.8489 43.0091ZM104.669 50.4988C103.894 55.0504 103.261 59.014 103.261 59.307C103.261 59.6807 104.975 59.8397 109.002 59.8397C115.093 59.8397 115.283 59.7683 115.283 57.4837C115.283 56.6734 114.93 56.5946 111.287 56.5946H107.29L107.541 55.0879C107.994 52.3587 107.89 52.4223 111.878 52.4223C115.387 52.4223 115.642 52.356 115.893 51.3792C116.041 50.8057 116.165 50.1794 116.168 49.9884C116.171 49.7974 114.448 49.6407 112.34 49.6407H108.505L108.817 47.906C108.99 46.9514 109.224 46.0127 109.339 45.8198C109.453 45.6265 111.339 45.4684 113.528 45.4684H117.51V43.8459V42.2233H111.794H106.078L104.669 50.4988ZM120.417 43.2664C119.771 46.2347 117.955 57.5941 117.955 58.6622C117.955 59.804 118.079 59.8851 119.625 59.7516C121.29 59.6084 121.296 59.6009 121.701 56.9423L122.107 54.2766L124.595 54.2836C128.03 54.2933 128.31 54.558 127.941 57.449L127.637 59.8397H129.423C130.9 59.8397 131.256 59.6584 131.478 58.7966C131.921 57.0786 131.794 53.4264 131.28 53.0963C130.97 52.8965 131.116 52.438 131.696 51.7941C133.414 49.8846 134.106 46.0451 133.09 44.0674C132.439 42.8014 129.916 42.2288 124.977 42.2261C120.846 42.2233 120.633 42.272 120.417 43.2664ZM136.936 43.0132C136.804 43.4713 136.173 46.9751 135.533 50.7997C134.894 54.6243 134.262 58.2227 134.13 58.7966C133.911 59.7465 134.048 59.8397 135.671 59.8397C136.718 59.8397 137.544 59.5921 137.674 59.2398C137.795 58.9097 138.246 56.3544 138.676 53.5608C139.106 50.7672 139.587 48.2207 139.746 47.9013C139.904 47.5819 140.919 50.1377 142 53.5803L143.967 59.8397H146.915H149.863L151.103 52.0746C152.759 41.7008 152.782 42.4824 150.81 42.3123C148.914 42.1482 149.09 41.7444 148.012 48.7135C146.861 56.1514 147.003 56.1416 144.724 48.9453L142.669 42.4551L139.922 42.3179C137.597 42.202 137.139 42.3091 136.936 43.0132ZM51.7916 46.4021C52.2819 46.9125 51.3784 53.431 50.604 54.972C49.9081 56.3567 49.3844 56.5797 46.8066 56.5876C43.9091 56.5964 43.7399 56.2557 44.4417 51.8307C45.1319 47.4818 45.7411 46.244 47.3815 45.8588C48.9538 45.4893 51.178 45.7633 51.7916 46.4021ZM68.0829 47.5546C68.0829 50.0121 66.8423 51.0315 63.8527 51.0315C61.1578 51.0315 61.156 51.0287 61.6895 47.6705L61.9655 45.932H65.0242H68.0829V47.5546ZM129.533 47.4512C129.533 48.287 129.22 49.4344 128.839 50.0009C128.254 50.8716 127.73 51.0315 125.472 51.0315H122.798L123.105 48.8294C123.274 47.6185 123.498 46.4707 123.604 46.2797C123.71 46.0887 125.087 45.932 126.664 45.932H129.533V47.4512Z" fill="white"/>
</svg>
