<svg width="35" height="35" viewBox="0 0 35 35" fill="none" xmlns="http://www.w3.org/2000/svg">
<circle cx="17.5" cy="17.5" r="17.5" fill="#EEEEEE"/>
<path d="M10.5 12.775H12.075H24.675" stroke="#222222" stroke-width="1.5" stroke-linecap="round" stroke-linejoin="round"/>
<path d="M14.4387 12.775V11.2C14.4387 10.7823 14.6046 10.3817 14.9 10.0863C15.1953 9.79094 15.596 9.625 16.0137 9.625H19.1637C19.5814 9.625 19.982 9.79094 20.2774 10.0863C20.5727 10.3817 20.7387 10.7823 20.7387 11.2V12.775M23.1012 12.775V23.8C23.1012 24.2177 22.9352 24.6183 22.6399 24.9137C22.3445 25.2091 21.9439 25.375 21.5262 25.375H13.6512C13.2335 25.375 12.8328 25.2091 12.5375 24.9137C12.2421 24.6183 12.0762 24.2177 12.0762 23.8V12.775H23.1012Z" stroke="#222222" stroke-width="1.5" stroke-linecap="round" stroke-linejoin="round"/>
</svg>
