<svg width="28" height="28" viewBox="0 0 28 28" fill="none" xmlns="http://www.w3.org/2000/svg">
<path fill-rule="evenodd" clip-rule="evenodd" d="M0.94733 0.0829434C0.291501 0.288909 -0.120677 1.01478 0.0316741 1.69558C0.124709 2.11111 0.395569 2.4848 0.732253 2.66194C0.959168 2.78138 1.12342 2.80574 1.89522 2.83413L2.79395 2.86716L2.83715 3.14608C2.89424 3.51456 3.30908 6.87186 3.41916 7.85669C3.46682 8.28281 3.58967 9.31481 3.69213 10.15C3.79458 10.9852 3.962 12.3519 4.06414 13.1871C4.54499 17.1183 4.74396 18.5906 4.83935 18.9244C5.02046 19.5579 5.55052 20.0534 6.19538 20.1919C6.42025 20.2403 9.05237 20.2546 15.2213 20.2411L23.9297 20.222L24.2472 20.0545C24.6906 19.8206 25.0504 19.3917 25.1932 18.9268C25.2572 18.7188 25.6063 17.3352 25.969 15.8523C26.3317 14.3694 26.7539 12.682 26.9072 12.1024C27.0606 11.5229 27.3714 10.3096 27.598 9.40623C28.051 7.60033 28.0612 7.44941 27.7537 7.10758C27.4137 6.72955 28.0553 6.74808 16.6778 6.78688C7.69602 6.8175 6.25482 6.81019 6.19154 6.73377C6.12193 6.64978 5.9552 5.5263 5.55195 2.42467C5.45383 1.66992 5.33377 0.958683 5.28512 0.844141C5.15886 0.546815 4.91447 0.308371 4.57549 0.151743C4.30128 0.0251146 4.1793 0.0151355 2.76296 0.0028631C1.55543 -0.0076118 1.18354 0.00881334 0.94733 0.0829434ZM19.9319 22.3065C18.9305 22.4443 18.1444 23.0231 17.687 23.9597C17.4923 24.3581 17.4842 24.4046 17.4839 25.1186C17.4836 25.8461 17.4885 25.8725 17.7074 26.3272C18.2253 27.4028 19.1405 28.0019 20.2628 28C21.7004 27.9976 22.8388 27.0294 23.096 25.5905C23.4251 23.7488 21.7893 22.0511 19.9319 22.3065ZM7.80629 22.4124C6.79536 22.7618 6.11109 23.5134 5.88622 24.5215C5.48805 26.3069 6.83596 28.002 8.65122 27.9985C9.92085 27.996 10.9088 27.2827 11.3823 26.0264C11.5609 25.5525 11.5606 24.7693 11.3818 24.2559C11.0636 23.3428 10.3561 22.6579 9.4612 22.3967C9.00892 22.2646 8.21183 22.2723 7.80629 22.4124Z" fill="white"/>
</svg>
