<svg width="37" height="23" viewBox="0 0 37 23" fill="none" xmlns="http://www.w3.org/2000/svg">
  <path fill-rule="evenodd" clip-rule="evenodd" d="M0.256182 0.20719L0.0242816 0.414381L0.0045424 9.66851C-0.00632126 14.7583 0.0029803 18.9973 0.0252046 19.0884C0.047358 19.1797 0.148752 19.3314 0.250501 19.4257C0.430497 19.5925 0.467206 19.5972 1.60143 19.5972C3.11978 19.5972 3.16402 19.5745 3.36219 18.6916C3.79709 16.7542 5.41755 15.4789 7.44423 15.4789C9.45706 15.4789 11.0992 16.7765 11.5285 18.7061C11.61 19.0724 11.702 19.2913 11.827 19.4164L12.0079 19.5972H16.8674H21.727L21.9346 19.3896L22.1421 19.1821L22.1406 9.82181C22.1391 1.06031 22.1311 0.451871 22.0163 0.310075C21.9488 0.226787 21.8238 0.122908 21.7385 0.0793116C21.6263 0.0219401 18.6644 0 11.0358 0H0.488082L0.256182 0.20719ZM24.1504 4.02601C24.0639 4.04277 23.9121 4.15269 23.8131 4.27034L23.6332 4.48413V11.8222V19.1602L23.8517 19.3787C24.0646 19.5916 24.0872 19.5972 24.7353 19.5972C25.6072 19.5972 25.7107 19.5169 25.9073 18.6876C26.2281 17.3351 26.9291 16.4386 28.0893 15.8974C29.6761 15.157 31.5967 15.4146 32.8047 16.5297C33.513 17.1835 33.9488 17.9828 34.1057 18.9155C34.1333 19.08 34.2345 19.2748 34.3546 19.3948C34.5484 19.5887 34.5848 19.5971 35.2192 19.5956C35.9222 19.5939 36.0924 19.5284 36.2637 19.1936C36.3679 18.9897 36.3759 11.6969 36.272 11.5029C36.0891 11.1609 30.2027 4.21126 30.0022 4.1005C29.798 3.98767 29.5252 3.97716 27.0425 3.9859C25.5384 3.99122 24.237 4.00926 24.1504 4.02601ZM29.3736 5.58179C29.4773 5.6447 30.1053 6.34984 30.7691 7.14878C32.7925 9.58387 32.7218 9.48738 32.7218 9.80882C32.7218 10.0289 32.6746 10.1407 32.5142 10.3011L32.3067 10.5086H28.9296H25.5526L25.3207 10.3014L25.0888 10.0943V7.98798V5.88171L25.3207 5.67452L25.5526 5.46733H27.3688C28.9139 5.46733 29.2133 5.48444 29.3736 5.58179ZM6.84545 16.9034C6.32648 16.9902 5.64775 17.3654 5.2514 17.7844C4.65348 18.4166 4.38416 19.0793 4.38473 19.9167C4.38579 21.4665 5.43105 22.6894 6.98164 22.955C8.16499 23.1577 9.50435 22.5181 10.1028 21.4645C10.4221 20.9025 10.516 20.4871 10.4849 19.7755C10.4593 19.1903 10.4268 19.0571 10.1944 18.5871C9.76572 17.7196 9.01712 17.1261 8.10911 16.9337C7.57431 16.8204 7.37017 16.8155 6.84545 16.9034ZM29.3922 16.9048C28.8473 17.0118 28.1925 17.368 27.8001 17.7708C26.4079 19.2 26.7016 21.5419 28.4004 22.5586C30.268 23.6763 32.6312 22.5681 33.0139 20.3951C33.237 19.1291 32.5011 17.7173 31.3336 17.1709C30.68 16.8651 30.0408 16.7775 29.3922 16.9048ZM7.9076 19.1723C8.20994 19.3591 8.39505 19.7465 8.33498 20.0667C8.30885 20.2058 8.18388 20.4149 8.04202 20.5568C7.82673 20.772 7.74919 20.8043 7.44693 20.8043C7.15148 20.8043 7.06216 20.7693 6.85177 20.5708C6.06462 19.8284 6.98874 18.6044 7.9076 19.1723ZM30.3853 19.1391C30.6678 19.2852 30.8751 19.6401 30.8754 19.9783C30.8756 20.2029 30.8254 20.3033 30.6 20.5286C30.367 20.7616 30.278 20.8043 30.0252 20.8043C29.8606 20.8043 29.6375 20.752 29.5294 20.6881C29.2566 20.527 29.1005 20.2327 29.1005 19.8796C29.1005 19.6268 29.1432 19.5378 29.3762 19.3048C29.6871 18.9939 30.0039 18.9419 30.3853 19.1391Z" fill="white" />
</svg>