<svg width="31" height="32" viewBox="0 0 31 32" fill="none" xmlns="http://www.w3.org/2000/svg">
  <path fill-rule="evenodd" clip-rule="evenodd" d="M14.7822 0.0551917C14.1296 0.183321 13.7968 0.414868 12.5341 1.61952C11.738 2.37885 11.2455 2.80184 11.089 2.8604C10.8734 2.94111 10.7201 2.93097 9.41948 2.74979C8.63174 2.64005 7.80078 2.54777 7.57286 2.54471C6.63829 2.5322 5.78211 2.98296 5.2624 3.76119C4.94583 4.23529 4.88077 4.46659 4.57808 6.19365C4.43988 6.98226 4.28391 7.71043 4.23142 7.81185C4.1158 8.03545 3.95208 8.13999 2.6694 8.80885C0.92314 9.7194 0.621022 9.95902 0.263035 10.7171C0.0622692 11.1423 0.00164542 11.4402 1.87775e-05 12.0103C-0.0015453 12.5404 0.0930503 12.8 0.867521 14.3907C1.37641 15.436 1.52906 15.8081 1.52906 16.0037C1.52906 16.1993 1.37641 16.5714 0.867521 17.6167C0.0930503 19.2074 -0.0015453 19.4669 1.87775e-05 19.9971C0.00164542 20.5672 0.0622692 20.8651 0.263035 21.2903C0.621022 22.0484 0.92314 22.288 2.6694 23.1985C3.95208 23.8674 4.1158 23.9719 4.23142 24.1955C4.28391 24.2969 4.44013 25.0266 4.57865 25.817C4.71716 26.6074 4.86932 27.3829 4.91668 27.5405C5.25558 28.6665 6.30445 29.4515 7.48677 29.4641C7.72764 29.4666 8.58326 29.3763 9.3882 29.2634C10.719 29.0767 10.8731 29.0661 11.089 29.147C11.2455 29.2055 11.738 29.6285 12.5341 30.3879C13.4948 31.3044 13.8207 31.5769 14.1286 31.721C14.9235 32.093 15.7534 32.093 16.5484 31.721C16.8562 31.5769 17.1821 31.3044 18.1429 30.3879C18.9389 29.6285 19.4314 29.2055 19.5879 29.147C19.8035 29.0663 19.9568 29.0764 21.2574 29.2576C22.0452 29.3673 22.8761 29.4596 23.1041 29.4627C24.0386 29.4752 24.8948 29.0244 25.4145 28.2462C25.7311 27.7721 25.7962 27.5408 26.0988 25.8137C26.237 25.0251 26.393 24.2969 26.4455 24.1955C26.5622 23.9697 26.7026 23.8813 28.1724 23.1087C29.5575 22.3806 29.8644 22.1617 30.2001 21.6625C30.5312 21.17 30.6718 20.7076 30.6768 20.0944C30.682 19.4601 30.6183 19.2781 29.8094 17.6167C29.3005 16.5714 29.1479 16.1993 29.1479 16.0037C29.1479 15.8081 29.3005 15.436 29.8094 14.3907C30.6183 12.7293 30.682 12.5473 30.6768 11.913C30.6718 11.2998 30.5312 10.8374 30.2001 10.3448C29.8644 9.84565 29.5575 9.62674 28.1724 8.89863C26.7026 8.12604 26.5622 8.0377 26.4455 7.81185C26.393 7.71043 26.237 6.98226 26.0988 6.19365C25.7962 4.46659 25.7311 4.23529 25.4145 3.76119C24.8948 2.98296 24.0386 2.5322 23.1041 2.54471C22.8761 2.54777 22.0452 2.64005 21.2574 2.74979C19.9568 2.93097 19.8035 2.94111 19.5879 2.8604C19.4314 2.80184 18.9389 2.37885 18.1429 1.61952C17.1967 0.716923 16.8537 0.42932 16.5589 0.291305C15.9575 0.00995841 15.394 -0.0649923 14.7822 0.0551917ZM12.3515 7.77456C13.7965 8.08074 14.8956 9.35453 15.0091 10.8546C15.1287 12.435 14.0381 13.9404 12.4791 14.3465C11.3372 14.6439 10.1304 14.3035 9.2677 13.4407C8.24204 12.4151 7.97815 10.9391 8.58876 9.64345C9.25875 8.22182 10.8149 7.44892 12.3515 7.77456ZM21.8925 9.12142C22.2973 9.36817 22.4636 9.90696 22.2557 10.2979C22.147 10.5024 9.79642 22.8437 9.60241 22.9417C9.3902 23.0489 9.00906 23.023 8.7844 22.886C8.37961 22.6392 8.21332 22.1004 8.42122 21.7095C8.52238 21.5191 20.8682 9.17391 21.063 9.0683C21.2635 8.95957 21.6697 8.98559 21.8925 9.12142ZM10.9878 9.70438C10.44 9.96533 10.1348 10.447 10.1291 11.0596C10.1211 11.929 10.7764 12.5894 11.6472 12.5894C13.1823 12.5894 13.7429 10.5904 12.4347 9.78165C12.0111 9.51976 11.4394 9.48923 10.9878 9.70438ZM19.9098 17.6686C20.7924 17.9306 21.6477 18.6193 22.0293 19.3753C22.6761 20.6566 22.4672 22.2095 21.5141 23.2067C20.4264 24.3446 18.9285 24.6275 17.5595 23.9536C16.4613 23.4131 15.7603 22.3752 15.6678 21.1528C15.5494 19.5893 16.6337 18.0781 18.171 17.6641C18.6228 17.5424 19.4922 17.5446 19.9098 17.6686ZM18.6856 19.4377C17.3615 19.7809 17.0854 21.5105 18.2407 22.2248C18.6561 22.4816 19.187 22.5181 19.6446 22.3213C20.8212 21.8151 20.862 20.1534 19.7121 19.5669C19.446 19.4311 18.9512 19.3688 18.6856 19.4377Z" fill="white" />
</svg>
  