<svg width="20" height="20" viewBox="0 0 20 20" fill="none" xmlns="http://www.w3.org/2000/svg">
<path d="M18.973 15.697C18.973 16.021 18.901 16.354 18.748 16.678C18.595 17.002 18.397 17.308 18.136 17.596C17.695 18.082 17.209 18.433 16.66 18.658C16.12 18.883 15.535 19 14.905 19C13.987 19 13.006 18.784 11.971 18.343C10.936 17.902 9.901 17.308 8.875 16.561C7.84 15.805 6.859 14.968 5.923 14.041C4.996 13.105 4.159 12.124 3.412 11.098C2.674 10.072 2.08 9.046 1.648 8.029C1.216 7.003 1 6.022 1 5.086C1 4.474 1.108 3.889 1.324 3.349C1.54 2.8 1.882 2.296 2.359 1.846C2.935 1.279 3.565 1 4.231 1C4.483 1 4.735 1.054 4.96 1.162C5.194 1.27 5.401 1.432 5.563 1.666L7.651 4.609C7.813 4.834 7.93 5.041 8.011 5.239C8.092 5.428 8.137 5.617 8.137 5.788C8.137 6.004 8.074 6.22 7.948 6.427C7.831 6.634 7.66 6.85 7.444 7.066L6.76 7.777C6.661 7.876 6.616 7.993 6.616 8.137C6.616 8.209 6.625 8.272 6.643 8.344C6.67 8.416 6.697 8.47 6.715 8.524C6.877 8.821 7.156 9.208 7.552 9.676C7.957 10.144 8.389 10.621 8.857 11.098C9.343 11.575 9.811 12.016 10.288 12.421C10.756 12.817 11.143 13.087 11.449 13.249C11.494 13.267 11.548 13.294 11.611 13.321C11.683 13.348 11.755 13.357 11.836 13.357C11.989 13.357 12.106 13.303 12.205 13.204L12.889 12.529C13.114 12.304 13.33 12.133 13.537 12.025C13.744 11.899 13.951 11.836 14.176 11.836C14.347 11.836 14.527 11.872 14.725 11.953C14.923 12.034 15.13 12.151 15.355 12.304L18.334 14.419C18.568 14.581 18.73 14.77 18.829 14.995C18.919 15.22 18.973 15.445 18.973 15.697Z" stroke="white" stroke-width="1.5" stroke-miterlimit="10"/>
<path d="M15.85 7.30002C15.85 6.76002 15.427 5.93202 14.797 5.25702C14.221 4.63602 13.456 4.15002 12.7 4.15002" stroke="white" stroke-width="1.5" stroke-linecap="round" stroke-linejoin="round"/>
<path d="M19 7.3C19 3.817 16.183 1 12.7 1" stroke="white" stroke-width="1.5" stroke-linecap="round" stroke-linejoin="round"/>
</svg>
