<svg width="28" height="32" viewBox="0 0 28 32" fill="none" xmlns="http://www.w3.org/2000/svg">
<path fill-rule="evenodd" clip-rule="evenodd" d="M6.83592 0.0895786C4.99571 0.383 3.48917 1.17233 2.19349 2.52194C1.20448 3.55214 0.54827 4.76482 0.177791 6.24711C-0.0123239 7.00763 -0.058009 8.43649 0.0799209 9.30738C0.609329 12.65 3.10994 15.2357 6.52344 15.9703C7.21378 16.1188 8.76538 16.1219 9.5034 15.9763C11.9253 15.4982 14.0097 13.9602 15.1335 11.8221C15.7549 10.6398 15.9891 9.74292 16.0366 8.36325C16.0752 7.24362 15.9759 6.46754 15.6772 5.55353C15.0105 3.51358 13.4576 1.73992 11.5232 0.809164C10.0604 0.105328 8.36709 -0.154595 6.83592 0.0895786ZM8.68113 2.72012C8.71463 2.8083 8.74207 3.04392 8.74207 3.24372C8.74207 3.45927 8.77382 3.63238 8.82019 3.66944C8.86319 3.70388 9.11142 3.77481 9.37191 3.82712C9.63239 3.87949 9.98394 3.98836 10.1531 4.06911C10.5385 4.2531 10.5583 4.38159 10.3152 5.12218C10.1114 5.74277 10.1189 5.74008 9.36703 5.46509C8.99168 5.32785 8.78625 5.29285 8.33584 5.28942C7.69375 5.28454 7.4297 5.38235 7.27446 5.68258C7.00879 6.1963 7.3294 6.55635 8.49602 7.05432C9.99575 7.69453 10.4974 8.13651 10.7673 9.05521C11.1246 10.2716 10.4544 11.5405 9.2096 12.0043C9.00405 12.0809 8.80069 12.1702 8.75769 12.2028C8.70644 12.2417 8.67957 12.4373 8.67957 12.7718C8.67957 13.5044 8.62957 13.5592 7.9618 13.5592C7.2914 13.5592 7.24215 13.5158 7.24215 12.9257C7.24215 12.3443 7.19422 12.2689 6.79005 12.2145C6.31808 12.151 5.53787 11.8944 5.33744 11.7367C5.19276 11.6229 5.17076 11.5669 5.19645 11.3775C5.25032 10.9805 5.49681 10.2412 5.58687 10.2066C5.63486 10.1882 5.89747 10.2593 6.17046 10.3646C6.81917 10.6147 7.18178 10.6935 7.68938 10.6946C8.46452 10.6961 8.97174 10.32 8.90725 9.79142C8.85025 9.32488 8.59764 9.10995 7.64313 8.71598C6.34307 8.17932 5.75255 7.75384 5.4485 7.13475C5.29376 6.81952 5.27363 6.70971 5.27463 6.18462C5.27557 5.67908 5.29963 5.53984 5.4365 5.24717C5.72061 4.63964 6.14402 4.25504 6.81317 3.99649C7.30033 3.80831 7.36714 3.70332 7.36714 3.12579C7.36714 2.8603 7.38589 2.62438 7.40883 2.6015C7.4317 2.57857 7.71362 2.55982 8.03529 2.55982C8.60564 2.55982 8.6217 2.56382 8.68113 2.72012ZM20.6252 7.65435C19.4903 7.94752 18.4343 8.5963 17.9363 9.30638C17.7649 9.55074 17.6124 9.88416 17.4866 10.2896C16.8109 12.469 16.2027 13.5338 14.8673 14.8763C13.4556 16.2954 11.8999 17.1436 9.9295 17.5685C9.3711 17.6889 9.08699 17.71 8.02336 17.71C6.9706 17.71 6.67418 17.6884 6.1444 17.5732C4.86509 17.2949 3.63722 16.7821 2.63465 16.1074L2.12075 15.7616L1.93788 16.2384C1.44853 17.5149 1.28373 18.3988 1.28398 19.7464C1.28423 21.3627 1.5739 22.5275 2.39529 24.2155C2.93608 25.3267 3.53417 26.2415 4.25775 27.0641C4.54774 27.3937 4.87666 27.7966 4.98865 27.9594C5.50818 28.7145 5.88135 29.8631 5.96247 30.9569C6.00359 31.5109 6.02615 31.5942 6.18258 31.7693L6.35695 31.9644H8.77332H11.1897L11.372 31.7603C11.5489 31.5624 11.5544 31.5365 11.5544 30.9026V30.2489L11.7575 30.2942C11.8692 30.3192 12.6285 30.3395 13.4449 30.3395H14.9292V30.9479C14.9292 31.5317 14.9366 31.5645 15.1115 31.7603L15.2938 31.9644L17.6724 31.9822L20.0511 32L20.2812 31.7891L20.5114 31.5782L20.5542 30.5526C20.5927 29.6301 20.6146 29.4831 20.7727 29.0896C21.0612 28.3716 21.3772 27.947 22.2881 27.054C23.7084 25.6615 24.6487 24.2528 25.0867 22.861L25.1981 22.507L25.8289 22.486C26.5788 22.461 26.8608 22.3439 27.1473 21.9386L27.3348 21.6733L27.3543 19.788C27.3752 17.771 27.354 17.5779 27.0757 17.2471C26.7984 16.9175 26.5891 16.8433 25.8392 16.809L25.156 16.7778L24.9608 16.2772C24.4338 14.9264 23.6764 13.8025 22.5129 12.6449C21.6962 11.8325 21.6874 11.8206 21.6123 11.4389C21.4559 10.6443 21.6093 9.85966 22.1148 8.86747C22.3947 8.31819 22.4119 8.20582 22.2641 7.89433C22.0603 7.46473 21.6127 7.39917 20.6252 7.65435ZM21.4246 15.1186C21.6565 15.2837 21.8636 15.6831 21.8636 15.9653C21.8636 16.2476 21.6565 16.6469 21.4246 16.812C21.2848 16.9116 21.1061 16.9668 20.8705 16.9833C20.4677 17.0114 20.1936 16.8675 19.9406 16.495C19.8155 16.3109 19.7966 16.2185 19.817 15.8892C19.8426 15.4715 19.953 15.2922 20.3352 15.0474C20.5957 14.8804 21.1402 14.9161 21.4246 15.1186Z" fill="white"/>
</svg>
