<svg width="20" height="20" viewBox="0 0 20 20" fill="none" xmlns="http://www.w3.org/2000/svg">
<path d="M1 1H2.566C3.538 1 4.303 1.837 4.222 2.8L3.475 11.764C3.349 13.231 4.50999 14.491 5.98599 14.491H15.571C16.867 14.491 18.001 13.429 18.1 12.142L18.586 5.392C18.694 3.898 17.56 2.683 16.057 2.683H4.43801" stroke="#222222" stroke-width="1.5" stroke-miterlimit="10" stroke-linecap="round" stroke-linejoin="round"/>
<path d="M13.825 19C14.4463 19 14.95 18.4963 14.95 17.875C14.95 17.2537 14.4463 16.75 13.825 16.75C13.2036 16.75 12.7 17.2537 12.7 17.875C12.7 18.4963 13.2036 19 13.825 19Z" stroke="#222222" stroke-width="1.5" stroke-miterlimit="10" stroke-linecap="round" stroke-linejoin="round"/>
<path d="M6.625 19C7.24632 19 7.75 18.4963 7.75 17.875C7.75 17.2537 7.24632 16.75 6.625 16.75C6.00368 16.75 5.5 17.2537 5.5 17.875C5.5 18.4963 6.00368 19 6.625 19Z" stroke="#222222" stroke-width="1.5" stroke-miterlimit="10" stroke-linecap="round" stroke-linejoin="round"/>
<path d="M7.30005 6.40002H18.1" stroke="#222222" stroke-width="1.5" stroke-miterlimit="10" stroke-linecap="round" stroke-linejoin="round"/>
</svg>
