<svg width="20" height="30" viewBox="0 0 20 30" fill="none" xmlns="http://www.w3.org/2000/svg">
<path fill-rule="evenodd" clip-rule="evenodd" d="M2.21272 0.118683C1.8759 0.296528 1.75794 0.583775 1.75794 1.22607V1.75579H5.27381H8.78969V1.22607C8.78969 0.573344 8.67226 0.294301 8.32243 0.115812C8.09988 0.00230744 7.98461 -0.0020288 5.26151 0.000432309C2.56003 0.00289342 2.42191 0.00828443 2.21272 0.118683ZM1.75794 4.3927V5.27167H6.15278H10.5476V4.74194C10.5476 4.08922 10.4302 3.81018 10.0804 3.63169C9.85524 3.51684 9.74249 3.51373 5.80354 3.51373H1.75794V4.3927ZM1.75794 17.6358V28.2421H1.22821C0.812988 28.2421 0.648562 28.2676 0.46726 28.36C0.207261 28.4927 0 28.8303 0 29.121C0 29.4118 0.207261 29.7494 0.46726 29.882C0.693682 29.9975 0.803026 30 5.68851 30H10.6785L10.6386 29.8389C10.6167 29.7503 10.5841 29.3547 10.5661 28.9599L10.5335 28.2421H9.66157H8.78969V27.3631V26.4841H7.37666C6.02135 26.4841 5.95408 26.4787 5.72988 26.3527C5.46895 26.2061 5.27381 25.8862 5.27381 25.6052C5.27381 25.3241 5.46895 25.0042 5.72988 24.8576C5.95408 24.7316 6.02135 24.7262 7.37666 24.7262H8.78969V23.8472V22.9682H7.37666C6.02135 22.9682 5.95408 22.9629 5.72988 22.8369C5.46895 22.6902 5.27381 22.3704 5.27381 22.0893C5.27381 21.8082 5.46895 21.4884 5.72988 21.3417C5.95408 21.2157 6.02135 21.2103 7.37666 21.2103H8.78969V20.3313V19.4524H7.37666C6.02135 19.4524 5.95408 19.447 5.72988 19.321C5.13675 18.9876 5.13675 18.1592 5.72988 17.8258C5.95408 17.6998 6.02135 17.6944 7.37666 17.6944H8.78969V16.8155V15.9365H7.37666C6.02135 15.9365 5.95408 15.9311 5.72988 15.8051C5.13675 15.4718 5.13675 14.6433 5.72988 14.3099C5.95408 14.1839 6.02135 14.1786 7.37666 14.1786H8.78969V13.2996V12.4206H7.37666C6.02135 12.4206 5.95408 12.4152 5.72988 12.2892C5.13675 11.9559 5.13675 11.1274 5.72988 10.7941C5.95408 10.6681 6.02135 10.6627 7.37666 10.6627H8.78969V9.72511V8.78755H11.9563C15.0144 8.78755 15.1309 8.7835 15.3542 8.66959C15.6142 8.53692 15.8214 8.19934 15.8214 7.90858C15.8214 7.61781 15.6142 7.28023 15.3542 7.14756C15.1264 7.03136 15.0222 7.02961 8.44045 7.02961H1.75794V17.6358ZM14.3272 10.7459C13.8338 10.8694 13.4645 11.0802 13.0924 11.4509C11.6423 12.8956 12.3318 15.354 14.3272 15.8532C14.5832 15.9173 14.4071 15.9272 12.9332 15.9315C11.3636 15.9361 11.2301 15.9447 11.0149 16.0545C10.866 16.1304 10.7415 16.2549 10.6656 16.4038C10.5522 16.626 10.5476 16.7444 10.5476 19.4524C10.5476 22.1207 10.5536 22.2812 10.6607 22.4872C10.7228 22.6067 11.1183 23.047 11.5396 23.4655L12.3056 24.2264V26.7639C12.3056 29.1915 12.3107 29.3115 12.4235 29.5327C12.4995 29.6816 12.6239 29.8061 12.7728 29.882C12.9908 29.9932 13.1154 30 14.9425 30C16.7696 30 16.8941 29.9932 17.1121 29.882C17.261 29.8061 17.3855 29.6816 17.4614 29.5327C17.5743 29.3115 17.5794 29.1915 17.5794 26.7639V24.2264L18.3453 23.4655C18.7666 23.047 19.1622 22.6067 19.2243 22.4872C19.3313 22.2812 19.3373 22.1207 19.3373 19.4524C19.3373 16.7444 19.3328 16.626 19.2194 16.4038C19.1434 16.2549 19.019 16.1304 18.8701 16.0545C18.6549 15.9447 18.5213 15.9361 16.9518 15.9315C15.4979 15.9272 15.3053 15.9167 15.5578 15.8552C16.876 15.5342 17.7593 14.2097 17.5334 12.8925C17.4335 12.31 17.2046 11.8652 16.7909 11.4495C16.1301 10.7857 15.214 10.5241 14.3272 10.7459Z" fill="#3197D6"/>
</svg>
