<svg width="121" height="24" viewBox="0 0 121 24" fill="none" xmlns="http://www.w3.org/2000/svg">
<path d="M42.5063 14.0327C42.5063 12.0259 41.4526 11.3772 39.7838 11.3772C38.252 11.3772 37.2318 12.2269 36.6197 12.976V23.5919H31.3788V0.898363H36.6197V9.16635C37.6064 8.00914 39.5463 6.75143 42.3022 6.75143C46.0449 6.75143 47.7472 8.86182 47.7472 11.8888V23.595H42.5063V14.0327ZM60.0533 23.5919H65.2943V7.1595H60.0533V17.7754C59.4412 18.5581 58.421 19.3742 56.9227 19.3742C55.2204 19.3742 54.2002 18.692 54.2002 16.7187V7.15645H48.9593V18.8626C48.9593 21.8896 50.6281 24 54.3708 24C57.1268 24 59.0331 22.7758 60.0533 21.6186V23.5919ZM108.337 6.74838C105.751 6.74838 103.607 8.24667 102.654 9.67492C101.975 7.73506 100.34 6.74838 97.9916 6.74838C95.5188 6.74838 93.4846 8.08527 92.6867 9.0354C92.6532 8.96232 92.6167 8.88923 92.5801 8.81919V8.75828H92.5466C91.7518 7.31785 90.2444 6.62657 88.2406 6.62657C87.6133 6.62657 87.0103 6.71488 86.4469 6.87019C84.4279 7.24781 82.8017 8.48116 82.0069 9.67492C81.3278 7.73506 79.6924 6.74838 77.3445 6.74838C74.759 6.74838 72.6487 8.21013 71.933 9.16331V7.15645H66.692V23.5919H71.933V12.976C72.4781 12.2969 73.4648 11.3772 74.8595 11.3772C76.4583 11.3772 77.0369 12.3304 77.0369 13.5881V23.5919H82.2779V12.976C82.7895 12.2969 83.8097 11.3772 85.2379 11.3772C86.4956 11.3772 87.1351 11.9924 87.3392 12.8847V23.5919H87.4153H92.5801H92.6228V12.9273C93.174 12.2512 94.1454 11.3772 95.5067 11.3772C97.1055 11.3772 97.6841 12.3304 97.6841 13.5881V23.5919H102.925V12.976C103.437 12.2969 104.457 11.3772 105.885 11.3772C107.45 11.3772 108.062 12.3304 108.062 13.5881V23.5919H113.27V11.6848C113.27 8.31367 111.364 6.74838 108.337 6.74838ZM120.353 10.1317C120.353 10.9113 120.049 11.6452 119.498 12.1995C118.946 12.7507 118.212 13.0552 117.43 13.0552C116.65 13.0552 115.916 12.7507 115.362 12.1995C114.811 11.6483 114.506 10.9144 114.506 10.1317C114.506 9.35211 114.811 8.6182 115.362 8.06395C115.913 7.51275 116.647 7.20822 117.427 7.20822H117.43C118.209 7.20822 118.943 7.51275 119.494 8.06395C120.049 8.6182 120.353 9.35211 120.353 10.1317ZM119.616 10.1317C119.616 8.92577 118.636 7.94823 117.433 7.94823C116.227 7.94823 115.249 8.92882 115.249 10.1317C115.249 11.3376 116.23 12.3152 117.433 12.3152C118.636 12.3182 119.616 11.3376 119.616 10.1317ZM118.815 9.35516V10.9296C118.815 11.633 118.246 11.8066 117.817 11.8066C117.521 11.8066 117.274 11.7305 117.052 11.5478L117.293 11.1549C117.424 11.2981 117.619 11.3559 117.82 11.3559C118.002 11.3559 118.27 11.2585 118.27 10.9357V10.8047C118.127 10.9722 117.957 11.0544 117.759 11.0544C117.338 11.0544 116.997 10.7651 116.997 10.1835C116.997 10.0343 117.013 9.90331 117.043 9.79368H116.766V11.0423H116.215V9.79368H115.928V9.31557H116.215V9.2303C116.215 8.86182 116.477 8.62124 116.833 8.62124C116.982 8.62124 117.113 8.65474 117.198 8.70042L117.098 9.07499C117.055 9.05063 117.003 9.03845 116.955 9.03845C116.839 9.03845 116.766 9.10849 116.766 9.24248V9.31252L117.628 9.30339C117.722 9.30034 118.203 9.27293 118.27 9.56224V9.3582H118.815V9.35516ZM118.27 9.95204C118.203 9.85763 118.057 9.79977 117.941 9.79977C117.722 9.79977 117.564 9.93072 117.564 10.1835C117.564 10.4362 117.725 10.5702 117.941 10.5702C118.057 10.5702 118.203 10.5093 118.27 10.4149V9.95204ZM25.0963 15.5706V23.5919H13.5029V23.5889C13.4359 23.5889 13.3689 23.5919 13.3019 23.5919C6.78797 23.5919 1.50438 18.3114 1.50438 11.7944C1.50438 10.7834 1.63228 9.79977 1.87286 8.86487C2.08908 7.57975 1.05672 5.51199 0 4.15379C1.70841 4.35173 4.20556 4.21774 4.97297 3.44119C7.10773 1.31557 10.0495 0 13.2988 0C16.405 0 19.228 1.20289 21.3323 3.16407L21.5059 3.4351L13.5759 11.3681C13.3993 11.5447 13.3993 11.834 13.5759 12.0107C13.6643 12.099 13.78 12.1447 13.8987 12.1447C14.0175 12.1447 14.1332 12.099 14.2215 12.0107L25.5683 0.663875C29.3354 4.94861 29.1801 11.4747 25.0963 15.5706ZM8.37457 7.22954C9.29121 7.22954 10.0343 6.48649 10.0343 5.56985C10.0343 4.65322 9.29121 3.91016 8.37457 3.91016C8.06395 3.91016 7.77769 3.99543 7.52798 4.14465C7.54016 4.14465 7.5493 4.14161 7.56148 4.14161C8.05786 4.14161 8.46289 4.54359 8.46289 5.04302C8.46289 5.54244 8.06091 5.94442 7.56148 5.94442C7.18386 5.94442 6.8641 5.71298 6.73011 5.38104C6.73011 5.39322 6.72707 5.40541 6.72707 5.42063C6.72402 5.46327 6.72097 5.50286 6.71793 5.54549C6.72097 5.78607 6.7697 6.01751 6.85192 6.23068C7.10164 6.81538 7.68938 7.22954 8.37457 7.22954Z" fill="#FF6C00"/>
</svg>
