<svg width="18" height="30" viewBox="0 0 18 30" fill="none" xmlns="http://www.w3.org/2000/svg">
<path fill-rule="evenodd" clip-rule="evenodd" d="M0 15V30H5.35714H10.7143V29.1964V28.3929H9.64286H8.57143V27.8571V27.3214H9.64286H10.7143V26.7857V26.25H8.57143H6.42857V25.7143V25.1786H8.57143H10.7143V24.6429V24.1071H9.64286H8.57143V23.5714V23.0357H9.64286H10.7143V22.5V21.9643H8.57143H6.42857V21.4286V20.8929H8.57143H10.7143V20.3571V19.8214H9.64286H8.57143V19.2857V18.75H9.64286H10.7143V18.2143V17.6786H8.57143H6.42857V17.1429V16.6071H8.57143H10.7143V16.0714V15.5357H9.64286H8.57143V15V14.4643H9.64286H10.7143V13.9286V13.3929H8.57143H6.42857V12.8571V12.3214H8.57143H10.7143V11.7857V11.25H9.64286H8.57143V10.7143V10.1786H9.64286H10.7143V9.64286V9.10714H8.57143H6.42857V8.57143V8.03571H8.57143H10.7143V7.5V6.96429H9.64286H8.57143V6.42857V5.89286H9.64286H10.7143V5.35714V4.82143H8.57143H6.42857V4.28571V3.75H8.57143H10.7143V3.21429V2.67857H9.64286H8.57143V2.14286V1.60714H9.64286H10.7143V0.803571V0H5.35714H0V15ZM13.3594 1.27225L12.0885 2.54458L12.4724 2.92862L12.8565 3.31259L13.4595 2.71239L14.0625 2.11219V15V27.8878L13.4595 27.2876L12.8565 26.6874L12.4724 27.0714L12.0885 27.4554L13.3594 28.7277L14.6304 30L15.8866 28.7451L17.1429 27.4902L16.7415 27.0888L16.3401 26.6874L15.7858 27.2388C15.481 27.5421 15.2096 27.7902 15.1827 27.7902C15.1559 27.7902 15.1339 22.0346 15.1339 15C15.1339 7.9654 15.1559 2.20982 15.1827 2.20982C15.2096 2.20982 15.481 2.45792 15.7858 2.76121L16.3401 3.31259L16.7415 2.91121L17.1429 2.50982L15.8866 1.25491L14.6304 0L13.3594 1.27225Z" fill="#3197D6"/>
</svg>
