<svg width="31" height="30" viewBox="0 0 31 30" fill="none" xmlns="http://www.w3.org/2000/svg">
<path fill-rule="evenodd" clip-rule="evenodd" d="M14.249 0.0131437C12.2874 0.23319 11.0204 0.651989 9.54127 1.56937C7.30965 2.95347 5.64666 5.23543 5.01368 7.78212C4.78829 8.68877 4.71936 9.2798 4.71936 10.3047C4.71936 11.3295 4.78829 11.9205 5.01368 12.8272C5.91915 16.4702 8.84604 19.3971 12.4891 20.3026C13.3957 20.528 13.9868 20.5969 15.0116 20.5969C16.0372 20.5969 16.6244 20.5283 17.5419 20.3014C21.1488 19.409 24.116 16.4419 25.0084 12.8349C25.2353 11.9174 25.3039 11.3303 25.3039 10.3047C25.3039 8.93926 25.1098 7.84237 24.6591 6.65983C23.3466 3.21693 20.2935 0.723324 16.6542 0.121964C16.1528 0.0390729 14.6314 -0.0297393 14.249 0.0131437ZM15.5554 3.93556C15.6549 4.00115 16.0046 4.5226 16.4581 5.28171C16.8653 5.96326 17.2298 6.555 17.2682 6.59671C17.3067 6.63842 17.9369 6.82761 18.6689 7.01709C19.4008 7.20663 20.0851 7.41067 20.1895 7.47056C20.4047 7.59405 20.6433 8.01426 20.6433 8.26968C20.6433 8.54927 20.5082 8.7577 19.5538 9.9508L18.6402 11.0929L18.6732 11.4174C18.7533 12.2049 18.8372 13.8495 18.8125 14.1473C18.79 14.4183 18.7523 14.5078 18.5893 14.6758C18.3612 14.9113 18.0696 15.0238 17.8008 14.9802C17.6964 14.9632 17.045 14.7095 16.3533 14.4163C15.6615 14.1231 15.0578 13.8831 15.0116 13.8831C14.9655 13.8831 14.3618 14.1231 13.67 14.4163C12.9782 14.7095 12.3268 14.9632 12.2224 14.9802C11.9537 15.0238 11.6621 14.9113 11.4339 14.6758C11.271 14.5078 11.2332 14.4183 11.2108 14.1473C11.1861 13.8495 11.27 12.2049 11.35 11.4174L11.3831 11.0929L10.4694 9.9508C9.51504 8.7577 9.37994 8.54927 9.37994 8.26968C9.37994 8.01631 9.61858 7.59405 9.83042 7.4725C9.93302 7.41366 10.6136 7.20951 11.3429 7.01879C12.0722 6.82814 12.6914 6.65819 12.7189 6.64118C12.7465 6.62417 13.0539 6.12817 13.4021 5.53895C14.2275 4.14235 14.3229 4.0056 14.5536 3.88798C14.8017 3.76156 15.3293 3.78661 15.5554 3.93556ZM2.30935 20.1117C1.15356 22.1177 0.159744 23.8588 0.100846 23.9806C-0.0405329 24.2732 -0.0341972 24.4795 0.125778 24.7968C0.267802 25.0784 0.643835 25.3236 0.930172 25.3213C1.01207 25.3207 2.33299 24.9816 3.86557 24.5679C6.28515 23.9147 6.65784 23.8279 6.69597 23.9091C6.72008 23.9605 7.04396 25.1509 7.41571 26.5544C7.78746 27.958 8.13246 29.2173 8.18233 29.3529C8.42631 30.0167 9.2439 30.2183 9.70599 29.7287C9.79276 29.6368 10.7849 27.9676 11.9106 26.0194L13.9575 22.4773L13.7366 22.4395C13.6151 22.4187 13.2385 22.3562 12.8997 22.3007C11.04 21.9962 9.2222 21.1966 7.59264 19.9662C6.61507 19.2281 5.23108 17.7022 4.66915 16.743C4.57939 16.5897 4.48453 16.4643 4.45837 16.4643C4.43221 16.4643 3.46514 18.1057 2.30935 20.1117ZM25.3561 16.7396C24.7922 17.7022 23.4098 19.2269 22.4306 19.9662C20.8011 21.1966 18.9833 21.9962 17.1235 22.3007C16.7847 22.3562 16.4081 22.4187 16.2866 22.4395L16.0656 22.4773L18.1091 26.0158C19.233 27.9619 20.2251 29.6311 20.3138 29.725C20.7349 30.1712 21.4956 30.0522 21.7832 29.4953C21.827 29.4104 22.1852 28.1266 22.5792 26.6424C22.9732 25.1582 23.3126 23.915 23.3334 23.8797C23.3587 23.8367 24.2894 24.0634 26.1577 24.5676C27.6903 24.9811 29.0102 25.3196 29.0909 25.3197C29.6773 25.3205 30.1693 24.6466 29.9748 24.1088C29.8804 23.8477 25.6447 16.4989 25.5752 16.4756C25.5455 16.4657 25.447 16.5845 25.3561 16.7396Z" fill="#3197D6"/>
</svg>
