<svg width="29" height="30" viewBox="0 0 29 30" fill="none" xmlns="http://www.w3.org/2000/svg">
<path fill-rule="evenodd" clip-rule="evenodd" d="M13.5826 0.01931C12.1744 0.275746 11.0469 1.10233 10.4455 2.31925C10.1123 2.99344 9.94019 3.87905 10.0283 4.46627L10.069 4.73785H10.9395H11.8101L11.8062 4.25373C11.8014 3.65195 11.9228 3.22282 12.2171 2.80155C12.6839 2.13347 13.348 1.78901 14.1694 1.78901C14.9909 1.78901 15.655 2.13347 16.1218 2.80155C16.4161 3.22282 16.5375 3.65195 16.5326 4.25373L16.5288 4.73785H17.3994H18.2699L18.3106 4.46627C18.333 4.31693 18.3358 4.0281 18.3168 3.82442C18.1542 2.08353 17.0066 0.67906 15.3137 0.149406C14.9701 0.0418435 13.9003 -0.0384907 13.5826 0.01931ZM6.54755 6.64691C4.31598 7.13502 2.74732 8.72404 2.26279 10.9874C2.22823 11.1487 1.70544 14.0667 1.10108 17.4716L0.00216322 23.6625L0.0001094 24.6014C-0.00165103 25.41 0.0167748 25.6054 0.13308 26.0097C0.401781 26.944 0.902036 27.7813 1.61853 28.4961C2.22611 29.1023 3.13068 29.6057 4.07632 29.8639L4.57511 30H14.1694H23.7638L24.2626 29.8639C25.2082 29.6057 26.1128 29.1023 26.7204 28.4961C27.4369 27.7813 27.9371 26.944 28.2058 26.0097C28.3221 25.6054 28.3405 25.41 28.3388 24.6014L28.3367 23.6625L27.2378 17.4716C26.6335 14.0667 26.1107 11.1487 26.0761 10.9874C25.6264 8.88694 24.2648 7.38764 22.2262 6.7482L21.71 6.5863L14.3162 6.57562C8.1746 6.56676 6.85886 6.57884 6.54755 6.64691ZM9.2237 14.6024C9.65905 14.8132 9.70964 14.9847 9.71005 16.2516L9.71034 17.3249L11.034 15.9618C12.4463 14.5075 12.5671 14.4184 13.0136 14.5022C13.5848 14.6093 13.8913 15.3087 13.5863 15.8089C13.524 15.9111 12.9811 16.5001 12.3798 17.1178C11.7785 17.7356 11.2948 18.265 11.3049 18.2944C11.3151 18.3237 11.8119 18.8543 12.409 19.4736C13.0061 20.0928 13.5407 20.6681 13.5969 20.7519C13.7256 20.9439 13.7298 21.352 13.6058 21.6135C13.4192 22.0067 12.8422 22.1855 12.4383 21.9753C12.3415 21.9249 11.6946 21.2956 11.0007 20.577L9.73904 19.2703L9.7097 20.3913C9.68317 21.4059 9.66885 21.5278 9.55936 21.6743C9.34182 21.9652 9.15927 22.0623 8.82948 22.0623C8.4859 22.0623 8.29678 21.9551 8.0813 21.6385L7.94927 21.4446V18.2983C7.94927 14.7295 7.93125 14.8705 8.41948 14.6124C8.7326 14.4468 8.89796 14.4447 9.2237 14.6024ZM18.2049 14.5674C18.7436 14.6944 19.1369 14.9171 19.5473 15.3274C19.8125 15.5926 19.9221 15.7496 19.9515 15.9066C20.0143 16.2412 19.9362 16.5128 19.7129 16.7362C19.3308 17.1182 18.8725 17.089 18.3717 16.6508C17.8513 16.1955 17.3647 16.1435 16.905 16.4941C16.5461 16.7679 16.5167 16.9045 16.5167 18.2968C16.5167 19.5199 16.5196 19.5494 16.6626 19.7934C17.0527 20.4592 18.1312 20.4394 18.4826 19.7601C18.637 19.4614 18.6049 19.4081 18.2704 19.4081C17.5047 19.4081 17.0232 18.6256 17.443 18.0634C17.7093 17.7067 17.8022 17.6785 18.7771 17.6582C19.7916 17.6372 19.9907 17.687 20.2294 18.0216C20.3434 18.1814 20.3628 18.294 20.3798 18.8922C20.3944 19.4071 20.3748 19.6638 20.3014 19.9161C19.9207 21.2258 18.8839 22.0498 17.6022 22.0613C16.3136 22.0729 15.2185 21.2619 14.8311 20.0089C14.7436 19.726 14.7269 19.4469 14.7269 18.2638C14.7269 16.9493 14.7358 16.8296 14.8609 16.4676C15.3557 15.0365 16.7746 14.2301 18.2049 14.5674Z" fill="#3197D6"/>
</svg>
