<svg width="30" height="24" viewBox="0 0 30 24" fill="none" xmlns="http://www.w3.org/2000/svg">
<path fill-rule="evenodd" clip-rule="evenodd" d="M24.0469 1.41066V2.88602H12.0235H0V4.41095V5.93588H12.0225H24.0449L24.0606 7.40432L24.0762 8.87277L25.9238 7.24984C26.9399 6.35723 28.0813 5.35242 28.4603 5.01693L29.1493 4.40685L26.7008 2.25928C25.3541 1.07817 24.206 0.0720073 24.1496 0.0235029C24.0522 -0.0601921 24.0469 0.0110689 24.0469 1.41066ZM1.11402 11.9731C0.711026 12.0956 0.34956 12.4013 0.138534 12.798C0.0345455 12.9936 0.0293255 13.2377 0.0293255 17.93V22.8567L0.157067 23.0953C0.227273 23.2266 0.390675 23.4296 0.520117 23.5466C0.992141 23.973 -0.154018 23.9417 15.0147 23.9417C30.1833 23.9417 29.0372 23.973 29.5092 23.5466C29.6387 23.4296 29.8021 23.2266 29.8723 23.0953L30 22.8567V17.93V13.0033L29.8705 12.7612C29.6897 12.4233 29.2618 12.063 28.9472 11.9838C28.7875 11.9436 28.0742 11.9183 27.1001 11.9183H25.5132V14.9095V17.9007H24.0176H22.522V14.9095V11.9183H21.0264H19.5308V13.4139V14.9095H18.0352H16.5396V13.4139V11.9183H15.0147H13.4897V14.9095V17.9007H11.9941H10.4985V14.9095V11.9183H9.00293H7.50733V13.4139V14.9095H6.01173H4.51613V13.4139V11.9183L2.88856 11.9233C1.99337 11.9261 1.19484 11.9485 1.11402 11.9731Z" fill="#3197D6"/>
</svg>
