<svg width="65" height="24" viewBox="0 0 65 24" fill="none" xmlns="http://www.w3.org/2000/svg">
<path d="M22.1719 7.31042L24.2052 24H44.0887L42.0551 7.31042H22.1719Z" fill="#AA8FFF"/>
<path d="M27.8443 0.941586C29.1124 2.14433 29.2864 4.03598 28.2328 5.1668C27.1792 6.29762 25.2969 6.23929 24.0288 5.03658C22.7607 3.83387 22.5867 1.94221 23.6403 0.811393C24.6939 -0.319397 26.5762 -0.261125 27.8443 0.941586Z" fill="#1A0826"/>
<path fill-rule="evenodd" clip-rule="evenodd" d="M64.9263 13.32C64.4686 9.56648 61.546 7.29725 57.5772 7.31042H44.3564L46.3898 24H52.3399L51.9346 20.6621H58.231C63.1805 20.6621 65.4493 17.5484 64.9263 13.32ZM57.5837 15.9851L51.359 15.9916L50.8686 11.9875L57.126 11.9941C58.5971 12.0138 59.349 12.845 59.4734 13.9928C59.5517 14.7251 59.2181 15.9851 57.5837 15.9851Z" fill="#1A0826"/>
<path d="M1.4646 19.3361L2.03344 24H21.897L21.2432 18.6633H11.9849L11.8999 17.997L20.4325 11.9875L19.8637 7.31042H0L0.647311 12.6537H9.92533L10.0103 13.32L1.4646 19.3361Z" fill="#1A0826"/>
</svg>
