<svg width="1920" height="365" viewBox="0 0 1920 365" fill="none" xmlns="http://www.w3.org/2000/svg">
<g style="mix-blend-mode:multiply">
<path d="M1964.39 -114.075C1898.19 -132.442 1834.86 -90.3516 1790.08 -47.1135C1712.21 27.8834 1649.83 114.359 1573.49 190.696C1497.33 266.841 1403.19 334.376 1288.39 356.186C1151.2 382.206 1004.06 339.733 875.099 280.615C746.136 221.307 626.358 145.162 492.995 95.0363C359.631 44.9108 203.69 23.8657 79.7023 78.7742M1966.88 -116.562C1914.45 -132.442 1862.79 -111.014 1820.51 -80.7857C1809.6 -72.9417 1799.27 -64.5236 1789.7 -56.1056C1762.91 -32.1908 1737.66 -6.74537 1713.36 19.274C1663.99 71.6953 1617.69 126.413 1565.45 176.921C1520.29 220.733 1469.4 261.675 1412.19 292.669C1370.48 315.435 1325.32 332.845 1276.53 342.22C1180.28 360.587 1079.07 346.429 983.205 314.288C941.302 300.321 900.738 283.103 861.514 264.545C805.643 237.951 751.494 208.297 696.388 180.747C627.889 146.31 559.198 115.125 487.829 91.4012C484.002 90.1257 480.175 88.914 476.348 87.7661C343.176 45.102 190.87 32.2837 71.8575 91.7838M1969.18 -118.858C1916.94 -136.077 1864.51 -116.945 1821.27 -88.4385C1809.98 -81.1684 1799.27 -73.133 1789.32 -65.0976C1761.38 -42.3307 1735.17 -17.4592 1709.91 7.79483C1658.82 59.0683 1610.8 113.211 1557.41 163.337C1511.11 206.575 1459.45 247.326 1401.66 278.511C1359.57 301.086 1314.03 318.496 1264.86 328.062C1167.85 347.003 1065.67 333.419 969.428 300.321C927.525 285.781 886.961 267.797 847.928 248.474C792.057 220.924 737.908 190.696 681.846 163.72C612.198 130.43 542.551 103.072 471.182 83.3657C467.355 82.3454 463.592 81.325 459.893 80.3046C326.912 45.2933 178.241 40.5103 63.8207 104.602M1971.47 -121.345C1919.62 -139.712 1866.43 -122.876 1821.84 -96.2825C1810.17 -89.395 1799.27 -81.7423 1788.74 -73.8982C1760.04 -52.2792 1732.87 -28.3643 1706.47 -3.4929C1653.47 46.4413 1603.91 100.011 1549.19 149.562C1501.93 192.609 1449.5 233.168 1391.14 264.162C1348.66 286.929 1302.55 304.339 1253.19 314.096C1155.22 333.419 1052.09 320.601 955.653 286.164C913.75 271.241 873.377 252.492 834.344 232.594C778.473 203.897 724.133 172.903 667.305 146.884C596.701 114.551 525.906 91.0185 454.536 75.3304C450.837 74.5651 447.074 73.7999 443.247 73.0346C310.649 45.4847 165.423 48.9284 55.9769 117.612M1973.77 -123.832C1922.3 -143.347 1868.34 -128.807 1822.61 -103.935C1810.56 -97.4305 1799.27 -90.3517 1788.36 -82.8902C1758.51 -62.2278 1730.38 -39.0783 1703.21 -14.7808C1648.3 34.0055 1597.02 86.6182 1541.15 135.978C1492.74 178.451 1439.55 218.819 1380.62 250.004C1337.76 272.58 1291.07 290.181 1241.51 300.13C1142.78 319.644 1038.69 307.591 942.067 272.197C899.973 256.701 859.6 237.186 820.759 216.524C764.888 186.869 710.547 155.11 652.763 130.048C581.011 98.8626 509.067 78.9654 438.08 67.4863C434.254 66.8486 430.427 66.2108 426.6 65.5731C294.385 45.676 152.794 57.1551 47.94 130.621M1976.06 -126.32C1924.78 -146.982 1870.25 -134.738 1823.18 -111.588C1810.94 -105.657 1799.27 -98.961 1787.98 -91.8822C1757.17 -72.1764 1727.9 -49.7921 1699.77 -26.0685C1642.94 21.3785 1590.13 73.4172 1532.92 122.203C1483.37 164.485 1429.6 204.662 1369.9 235.847C1326.66 258.422 1279.78 276.024 1229.65 285.972C1130.15 306.061 1025.3 294.773 928.291 258.04C886.197 242.16 846.015 221.881 806.982 200.453C751.303 169.842 696.771 137.318 638.221 113.212C565.512 82.9832 492.421 67.1037 421.434 59.4509C417.607 59.0683 413.844 58.6857 410.145 58.303C278.121 45.8673 139.974 65.5731 40.0953 143.631M1978.36 -128.615C1927.46 -150.808 1871.98 -140.477 1823.95 -119.241C1811.32 -113.692 1799.07 -107.379 1787.59 -100.874C1755.64 -82.3162 1725.41 -60.5059 1696.33 -37.3563C1637.78 8.94285 1583.24 60.2163 1524.89 108.62C1474.18 150.327 1419.65 190.504 1359.38 221.498C1315.75 244.074 1268.3 261.866 1217.98 272.006C1117.72 292.286 1011.71 281.763 914.515 244.074C872.229 227.62 832.239 206.575 793.397 184.574C737.717 152.815 683.186 119.716 623.679 96.1842C549.822 67.1038 475.774 55.0507 404.787 51.4156C401.088 51.2881 397.325 51.1605 393.498 51.033C261.857 46.0587 127.345 73.7999 32.25 156.45M1980.85 -131.102C1930.14 -154.443 1873.89 -146.408 1824.52 -126.893C1811.7 -121.919 1799.08 -115.988 1787.21 -109.675C1754.3 -92.2648 1723.11 -71.2197 1693.07 -48.8354C1632.42 -3.68421 1576.36 47.0153 1516.66 94.8449C1465 136.361 1409.7 176.155 1348.85 207.34C1304.85 229.725 1257.01 247.517 1206.31 257.849C1105.09 278.702 998.321 268.945 900.93 229.916C858.452 213.08 818.654 191.078 779.812 168.503C724.132 135.978 669.409 101.924 609.138 79.3482C534.324 51.4156 459.128 42.9976 388.141 43.3802C384.442 43.5078 380.679 43.5715 376.852 43.5715C245.593 46.25 114.526 82.2179 24.2141 169.459M1983.14 -133.59C1932.63 -158.078 1875.61 -152.339 1825.29 -134.738C1812.09 -129.955 1799.08 -124.598 1786.83 -118.667C1752.77 -102.213 1720.63 -81.9336 1689.63 -60.1233C1627.25 -16.12 1569.47 33.6229 1508.62 81.2613C1455.81 122.395 1399.94 161.998 1338.14 193.183C1293.94 215.567 1245.53 233.36 1194.64 243.882C1092.65 264.927 984.736 255.935 887.153 215.95C844.676 198.54 805.069 175.773 766.227 152.432C710.547 118.951 655.825 84.1311 594.596 62.5121C518.634 35.5361 442.481 30.9444 371.686 35.5361C367.859 35.6636 364.096 35.9188 360.397 36.3014C229.33 46.4413 101.898 90.6359 16.3693 182.469M1985.44 -136.077C1935.31 -161.713 1877.52 -158.27 1826.05 -142.39C1812.47 -138.181 1799.07 -133.207 1786.45 -127.659C1751.43 -112.162 1718.14 -92.6474 1686.38 -71.411C1621.89 -28.7469 1562.77 20.422 1500.59 67.4864C1446.63 108.237 1389.99 147.649 1327.62 178.834C1282.84 201.218 1234.24 219.202 1182.77 229.916C1080.02 251.344 971.342 243.117 873.376 201.983C830.899 184 791.292 160.467 752.641 136.361C696.962 101.924 642.047 66.3385 579.862 45.4847C503.135 19.6567 425.834 18.8914 355.039 27.5008C351.34 27.8834 347.577 28.3298 343.75 28.84C213.065 46.6326 89.0776 98.8627 8.33248 195.479M1987.74 -138.564C1937.99 -165.54 1879.25 -164.201 1826.63 -150.043C1812.66 -146.217 1799.08 -141.816 1786.06 -136.459C1750.09 -122.302 1715.65 -103.361 1682.93 -82.6988C1616.73 -41.1827 1555.88 7.22097 1492.36 53.7114C1437.45 94.271 1380.04 133.491 1317.09 164.676C1271.94 187.061 1222.76 205.045 1171.1 215.758C1067.59 237.569 957.949 230.107 859.601 187.826C817.124 169.459 777.708 145.162 738.866 120.482C683.378 84.8964 628.464 48.7371 565.322 28.6487C487.447 3.96856 409.189 7.02966 338.393 19.4654C334.694 20.1031 330.995 20.8046 327.296 21.5699C196.611 46.8239 76.4503 107.281 0.4887 208.488M1990.03 -140.86C1940.48 -169.175 1881.16 -170.132 1827.39 -157.696C1813.04 -154.443 1799.08 -150.234 1785.68 -145.451C1748.56 -132.25 1713.36 -114.075 1679.49 -93.9867C1611.56 -53.8098 1549 -5.98006 1484.32 40.1278C1428.26 80.1134 1370.09 119.142 1306.57 150.327C1261.03 172.712 1211.28 190.696 1159.43 201.792C1054.96 223.985 944.364 217.289 846.016 173.86C803.347 154.919 763.931 129.856 725.281 104.411C669.792 67.869 614.878 30.9445 550.779 11.8126C471.948 -11.9109 392.542 -5.02346 321.747 11.43C318.047 12.3228 314.348 13.2794 310.649 14.2997C180.347 46.8239 63.6302 115.507 -7.35659 221.307M1992.33 -143.347C1943.15 -172.81 1882.88 -176.254 1827.97 -165.349C1813.43 -162.67 1799.07 -158.844 1785.3 -154.443C1747.22 -142.199 1710.87 -124.789 1676.24 -105.466C1606.2 -66.4368 1542.11 -19.3724 1476.09 26.3528C1419.08 66.1471 1360.14 104.985 1295.85 136.17C1249.93 158.554 1199.99 176.538 1147.76 187.826C1042.52 210.21 930.97 204.471 832.239 159.702C789.57 140.379 750.346 114.359 711.695 88.3401C656.015 50.8416 601.101 13.1518 536.237 -5.02345C456.257 -27.7904 375.895 -17.0765 305.291 3.58589C301.464 4.60626 297.701 5.69038 294.002 6.8383C164.083 47.0152 51.0012 123.925 -15.3934 234.316M-23.2382 247.326C38.373 132.343 147.819 47.2066 277.547 -0.431764C281.246 -1.83477 284.945 -3.17399 288.644 -4.44945C359.057 -29.1296 440.759 -43.4785 521.695 -22.0508C587.516 -4.44944 642.43 33.8143 698.11 72.4607C736.569 99.054 775.602 125.839 818.462 145.736C917.576 191.461 1029.89 196.627 1135.89 173.668C1188.51 162.38 1239.03 144.205 1285.33 122.012C1350.19 90.8273 1409.7 51.9896 1468.06 12.7692C1535.22 -32.5733 1601.04 -78.8725 1672.79 -116.754C1708.38 -135.503 1745.69 -152.148 1784.92 -163.435C1799.08 -167.453 1813.81 -170.705 1828.73 -173.193C1884.8 -182.185 1945.83 -176.445 1994.81 -145.834M-31.2741 260.336C25.5536 140.57 131.555 47.3979 260.901 -7.89326C264.6 -9.42381 268.299 -10.9544 271.998 -12.4849C342.411 -41.1827 425.07 -59.358 507.154 -38.8869C573.74 -22.2422 628.846 16.7869 684.525 56.3899C722.985 83.7484 761.826 111.298 804.878 131.578C903.991 178.643 1017.46 182.852 1124.22 159.702C1177.22 148.223 1228.12 130.048 1274.81 107.663C1340.24 76.4783 1400.52 38.0233 1459.83 -1.00577C1528.33 -45.7744 1595.68 -91.4996 1669.35 -128.041C1705.89 -146.217 1744.35 -162.096 1784.53 -172.236C1799.08 -176.062 1814.19 -178.932 1829.31 -180.845C1886.52 -188.116 1948.32 -180.271 1997.11 -148.321M-39.1194 273.345C12.9249 148.988 115.291 47.5891 244.254 -15.1634C247.953 -16.9491 251.716 -18.7347 255.543 -20.5203C325.764 -53.0445 409.571 -75.2375 492.612 -55.723C560.155 -40.0348 615.26 -0.0492396 670.94 40.319C709.399 68.4429 748.05 96.7581 791.101 117.612C890.597 165.633 1004.83 169.268 1112.55 145.736C1165.74 134.065 1217.21 115.699 1264.28 93.5056C1330.29 62.3207 1391.33 24.0569 1451.79 -14.5895C1521.44 -59.1667 1590.52 -103.935 1666.09 -139.329C1703.6 -156.931 1743.01 -172.045 1784.15 -181.228C1799.08 -184.48 1814.38 -186.968 1830.07 -188.498C1888.43 -194.046 1951 -183.907 1999.41 -150.808M-46.9642 286.164C0.105261 157.215 99.0276 47.7805 227.799 -22.4335C231.498 -24.4743 235.197 -26.515 238.896 -28.5557C309.118 -65.0976 393.881 -91.117 478.07 -72.7504C546.378 -57.8275 601.675 -17.0766 657.164 24.4396C695.623 53.1374 734.273 82.2178 777.325 103.454C877.204 152.814 992.39 155.493 1100.88 131.578C1154.45 119.716 1206.12 101.35 1253.57 79.1567C1320.34 47.9718 1382.15 9.89936 1443.76 -28.3644C1514.55 -72.3677 1585.16 -116.562 1662.65 -150.808C1701.11 -167.644 1741.48 -182.185 1783.58 -190.22C1799.08 -193.09 1814.77 -195.194 1830.84 -196.151C1890.34 -199.977 1953.68 -187.542 2001.7 -153.104M-55 299.173C-11.3747 161.806 88.1216 41.2756 222.25 -36.3998C292.472 -77.1507 378.383 -106.805 463.529 -89.5864C580.628 -65.8628 658.121 36.1101 763.74 89.488C912.984 164.676 1098.2 132.152 1243.04 64.9992C1387.89 -2.15368 1510.92 -100.492 1659.4 -162.096C1713.16 -184.289 1770.76 -201.89 1831.41 -203.804C1892.07 -205.908 1956.17 -191.177 2004 -155.591" stroke="#EEEEEE"/>
</g>
</svg>
