<svg width="1920" height="403" viewBox="0 0 1920 403" fill="none" xmlns="http://www.w3.org/2000/svg">
<g style="mix-blend-mode:multiply">
<path d="M-174.546 625.547C-100.833 646.587 -28.3278 591.689 23.1506 536.066C112.573 439.331 185.319 328.569 273.05 230.382C361.023 132.195 468.571 44.6498 598.113 13.6944C752.79 -23.307 916.409 25.5445 1059.24 96.1614C1202.08 166.778 1334.28 258.919 1482.43 317.928C1630.58 376.695 1804.83 398.702 1945.49 325.908M-176.877 627.942C-118.636 646.278 -60.1543 617.81 -11.822 578.727C0.744329 568.595 12.5857 557.739 23.7021 546.641C54.3931 516.002 83.3925 483.433 111.425 449.9C168.216 382.832 222.106 312.628 282.038 247.49C333.995 191.52 392.235 138.445 457.484 97.6739C504.849 68.0001 556.082 44.8401 611.18 31.5713C719.686 5.51626 832.784 20.4738 939.356 57.6264C985.755 73.7901 1030.95 94.2965 1074.2 116.492C1136.07 148.095 1196 183.559 1256.9 216.61C1332.78 257.623 1408.9 294.776 1488.17 322.278C1492.36 323.726 1496.63 325.173 1500.98 326.621C1648.87 375.836 1819.49 387.657 1954.82 309.251M-179.208 631.414C-121.431 651.219 -61.9617 625.618 -12.4041 588.666C0.408362 579.005 12.7373 568.62 24.0993 558.234C56.0096 528.769 86.2276 496.889 115.479 464.284C174.223 398.349 229.824 329.034 291.227 264.548C344.411 208.516 403.638 155.865 469.392 115.048C517.258 85.3418 568.991 61.9145 624.35 48.631C733.861 21.8225 848.206 35.8305 955.057 74.4734C1001.71 91.3797 1046.68 112.875 1089.95 135.819C1151.59 168.907 1211.55 205.376 1273.68 237.257C1350.55 277.107 1428.15 309.229 1507.44 331.932C1511.63 333.059 1515.9 334.186 1520.25 335.313C1668.2 375.164 1835.01 376.854 1965.31 292.806M-182.704 634.634C-124.939 656.104 -64.7565 633.187 -14.0004 598.45C-0.707149 589.525 11.861 579.634 23.7041 569.503C56.8165 541.52 87.9952 510.643 118.207 478.56C179.115 414.393 236.396 345.884 299.237 281.958C353.619 226.476 413.56 174.129 480.026 133.362C528.365 103.69 580.571 80.2913 636.403 66.5413C746.858 39.5237 862.147 52.3087 969.218 92.5939C1015.87 109.962 1060.58 132.397 1103.84 156.278C1165.48 190.291 1225.42 227.682 1288.5 258.559C1366.81 296.914 1445.6 324.415 1524.88 341.783C1529.07 342.748 1533.34 343.632 1537.69 344.437C1685.6 374.831 1848.51 366.388 1973.46 276.651M-185.035 637.741C-127.758 660.718 -66.8561 640.643 -14.6543 607.991C-1.12053 599.526 11.9299 590.093 24.2553 580.661C58.3315 553.572 90.7159 523.581 121.892 492.381C184.969 429.254 243.938 361.532 308.223 297.922C363.809 242.777 424.711 190.535 491.896 149.418C540.473 119.911 593.4 96.2082 649.468 82.422C760.639 54.6077 877.126 66.7009 984.429 108.301C1031.07 126.441 1075.78 149.902 1118.8 174.572C1180.43 210.126 1240.6 248.582 1304.65 278.331C1383.92 315.337 1464.15 338.072 1543.42 350.649C1547.77 351.294 1552.04 351.858 1556.23 352.342C1703.9 373.384 1863.16 354.76 1982.79 259.224M-187.366 640.69C-130.312 665.075 -68.6637 647.933 -15.2355 617.512C-1.45535 609.544 12.083 600.852 24.6544 591.678C59.9508 566.085 93.555 536.871 125.709 506.45C190.983 445.125 251.905 378.247 317.421 315.231C374.234 260.666 435.882 208.516 503.816 167.713C552.892 138.016 606.321 114.597 662.65 100.352C775.067 72.3449 892.319 83.2097 1000.14 126.186C1046.8 145.018 1091.28 169.403 1134.32 194.995C1195.96 231.694 1256.16 270.807 1321.19 299.538C1401.94 335.271 1483.17 352.896 1562.71 360.38C1567.06 360.702 1571.33 361.024 1575.52 361.346C1723.24 373.177 1878.69 344.204 1993.28 243.283M-189.697 644.436C-133.161 670.558 -70.5849 656.046 -16.2233 627.747C-1.72691 620.49 12.0447 612.267 25.0915 603.559C61.5741 579.13 96.1239 550.831 129.466 521.08C196.632 460.854 259.209 394.822 326.134 332.177C384.119 277.997 446.454 225.994 515.07 185.117C564.841 155.367 618.478 131.663 675.256 117.393C788.328 88.6095 906.715 98.7682 1014.71 143.273C1061.59 162.623 1105.8 188.02 1148.56 214.384C1210.17 252.6 1270.33 292.751 1336.53 320.325C1418.2 354.671 1500.83 367.732 1580.32 369.909C1584.66 370.07 1588.93 370.231 1593.12 370.393C1740.5 372.57 1892.23 333.386 2001.44 226.478M-193.194 648.045C-137.092 675.662 -73.7365 664.034 -17.877 637.871C-3.12627 631.088 11.1408 623.336 24.6825 615.099C62.164 592.085 97.9527 564.468 132.291 535.398C201.45 476.773 266.015 411.364 334.449 349.105C393.694 295.325 457.049 243.483 526.45 202.3C576.506 172.745 630.673 148.762 687.742 134.227C802.121 105.157 921.578 114.12 1029.91 160.148C1076.82 180.255 1120.83 206.661 1163.88 234.035C1225.3 273.28 1285.51 314.463 1352.74 341.111C1435.92 374.057 1519.83 382.294 1599.39 379.629C1603.74 379.468 1608.01 379.306 1612.2 379.145C1759.71 371.877 1907.7 322.457 2011.93 209.81M-195.525 650.209C-139.67 679.423 -75.5944 670.49 -18.5308 646.587C-3.53955 640.31 11.21 633.308 25.2341 625.341C63.9212 603.853 100.674 577.294 135.976 549.046C207.306 491.825 273.557 427.602 343.436 366.035C403.885 312.919 467.96 261.492 538.081 220.447C588.616 190.992 643.262 167.089 700.809 152.362C815.903 122.665 936.558 130.874 1045.12 178.196C1092.03 198.718 1136.04 226.001 1178.84 254.249C1240.25 294.569 1300.7 336.58 1368.65 361.931C1453.03 393.318 1538.39 396.698 1617.94 388.972C1622.29 388.65 1626.56 388.248 1630.75 387.765C1778.25 371.105 1922.36 311.711 2021.25 193.648M-197.856 654.336C-142.489 685.15 -77.4522 679.084 -19.1847 657.49C-3.7112 651.667 11.2788 644.873 25.5434 637.594C65.4361 617.214 103.395 591.252 139.661 563.593C213.16 507.788 281.098 443.976 352.422 382.834C414.074 329.698 478.869 278.261 549.709 237.014C600.723 207.17 655.848 183.15 713.873 168.107C829.925 138.021 951.537 145.057 1060.09 194.068C1107.24 215.177 1151 243.807 1193.79 272.923C1255.21 314.898 1315.65 357.843 1384.8 382.349C1470.14 412.677 1556.94 411.221 1636.48 398.362C1640.83 397.715 1645.11 396.987 1649.3 396.178C1796.54 369.974 1937.25 300.097 2030.57 175.871M-201.352 655.937C-146.21 688.327 -80.4257 684.943 -20.9299 665.606C-5.20944 660.288 10.2691 654.245 25.0222 647.235C65.8953 628.14 105.075 603.484 142.321 576.654C218.021 522.509 287.916 459.663 360.472 399.234C423.354 346.781 489.138 295.537 560.726 254.446C611.999 224.956 667.625 201.026 725.911 185.798C842.968 155.1 965.829 161.143 1074.66 211.42C1122.07 233.174 1165.6 262.664 1208.17 292.637C1269.6 335.421 1330.06 379.413 1400.2 402.618C1487.02 431.382 1575.06 425.097 1654.87 407.21C1659.06 406.244 1663.25 405.277 1667.44 404.31C1814.73 368.778 1951.62 289.011 2039.9 159.451M-203.683 659.588C-149.029 693.377 -82.5253 692.895 -21.5837 675.759C-5.62284 671.173 10.3381 665.381 25.5735 659.105C67.4104 641.246 107.796 617.352 146.248 591.286C223.876 538.672 295.458 476.886 369.458 417.031C433.544 365.141 500.047 314.216 572.355 273.186C624.107 243.741 680.212 219.606 738.977 204.16C856.749 173.267 980.809 178.335 1089.88 229.984C1137.27 252.188 1180.56 282.599 1223.12 313.25C1284.55 357.417 1345.01 402.067 1416.35 424.271C1504.13 451.544 1593.61 440.683 1673.42 417.755C1677.61 416.468 1681.8 415.18 1685.99 413.893C1833.02 369.002 1966.27 279.22 2049.22 144.305M-206.014 662.785C-151.618 698.26 -84.1673 700.432 -22.0352 685.47C-5.59554 681.367 10.6023 676.299 26.0749 670.266C69.3498 653.855 110.691 630.929 150.097 605.589C229.878 554.427 303.131 493.37 378.56 434.002C443.835 382.357 511.044 331.919 584.055 290.893C636.275 261.45 693.089 237.076 752.078 221.63C870.782 190.257 995.771 194.119 1105.05 247.212C1152.43 270.138 1195.71 301.511 1238.26 333.126C1299.42 378.496 1359.86 424.108 1432.15 445.104C1521.36 471.167 1611.77 455.239 1691.8 427.245C1695.99 425.797 1700.18 424.269 1704.37 422.66C1851.36 368.36 1980.7 268.449 2058.55 127.994M2066.7 110.517C1994.18 256.882 1868.72 367.017 1721.74 430.779C1717.55 432.712 1713.36 434.563 1709.17 436.334C1629.16 469.182 1537.3 489.953 1447.13 465.317C1373.88 445.271 1313.2 398.898 1252.04 352.042C1209.5 319.678 1166.47 287.314 1119.09 263.644C1009.34 209.301 883.392 206.161 763.731 238.043C704.505 253.983 647.213 278.377 594.513 307.602C521.025 348.903 452.854 399.14 386.376 450.343C309.503 509.275 234.322 569.415 152.614 619.169C112.244 643.804 69.698 665.783 25.4598 681.241C9.26329 686.554 -7.17497 691.385 -24.0967 694.766C-87.1906 707.808 -155.361 702.495 -209.511 665.542M2076.03 94.2063C2008.83 246.219 1887 366.572 1740.28 440.04C1736.09 442.135 1731.9 444.149 1727.71 446.082C1647.7 484.267 1554.4 509.642 1463.03 486.442C1388.82 467.591 1328.15 419.982 1266.99 372.13C1224.69 338.779 1181.91 305.429 1134.29 281.261C1024.31 225.193 897.407 223.26 776.789 255.644C717.084 271.594 659.313 296.003 606.377 325.487C531.928 366.572 463.038 416.84 395.356 467.591C317.281 526.076 240.173 585.528 156.296 633.862C114.962 657.788 71.2113 678.813 26.0099 692.83C9.33128 697.905 -7.58906 702.014 -24.7511 704.914C-89.0483 715.789 -158.18 707.814 -211.842 669.146M2085.35 77.8952C2023.24 235.653 1905.31 366.11 1758.61 448.975C1754.42 451.23 1750.23 453.566 1746.04 455.982C1666.05 498.984 1571.55 529.424 1478.75 507.44C1403.59 489.804 1342.93 441.245 1281.79 391.96C1239.49 357.896 1196.96 323.591 1149.35 298.707C1039.15 241.209 911.06 240.243 789.74 273.099C729.563 289.527 671.32 313.927 617.91 343.401C542.991 384.471 473.147 434.48 404.27 484.731C324.76 542.712 245.974 601.176 160.18 648.044C117.404 671.237 72.9357 691.53 26.5344 704.093C9.37558 708.925 -7.78324 712.307 -25.4254 714.723C-90.919 723.42 -161.004 712.549 -214.173 672.445M2094.68 60.419C2037.86 223.929 1923.5 364.703 1776.98 457.1C1772.79 459.681 1768.6 462.261 1764.41 464.841C1684.38 513.216 1588.4 548.289 1494.59 527.729C1418.19 511.04 1357.5 461.696 1296.33 411.143C1254.26 376.071 1211.71 340.757 1164.08 315.359C1053.59 256.341 924.481 256.341 801.9 289.72C741.456 306.168 682.705 330.84 628.789 360.107C553.113 401.468 482.514 451.295 412.399 501.122C331.404 558.69 250.893 616.499 162.886 661.73C119.125 684.225 73.4292 703.817 25.7994 715.185C8.39149 719.297 -9.25813 722.442 -27.1495 724.135C-94.1215 730.665 -164.72 716.878 -217.669 675.275M2104 45.273C2050.82 219.166 1935.51 373.738 1782.74 475.417C1702.73 528.551 1605.55 568.401 1510.31 549.321C1379.53 522.996 1295.89 397.406 1179.14 333.646C1013.79 243.559 804.939 290.172 640.562 378.81C475.943 467.688 334.772 594.727 166.528 676.601C105.611 706.308 40.3441 729.977 -27.824 734.324C-95.9921 738.672 -167.544 722.248 -220 679.017" stroke="#EEEEEE"/>
</g>
</svg>
